<svg width="786.249" height="458.664" viewBox="0 0 208.028 121.355" xmlns="http://www.w3.org/2000/svg"><path opacity=".279" fill="none" stroke="#fff" stroke-width="1.765" stroke-linejoin="round" d="M38.02 43.659h66.18v80.599H38.02z" transform="matrix(.57046 .34744 -.25352 .52903 149.414 29.582)"/><path opacity=".279" fill="none" stroke="#fff" stroke-width="1.765" stroke-linejoin="round" d="M45.834 89.738h24.387v25.517H45.834z" transform="matrix(.57046 .34744 -.25352 .52903 149.414 29.582)"/><path opacity=".279" fill="#fff" stroke="#fff" stroke-width="1.765" stroke-linejoin="round" d="M38.02 43.659h65.863v16.586H38.02z" transform="matrix(.57046 .34744 -.25352 .52903 149.414 29.582)"/><path d="M42.062 52.866h27.46" fill="none" stroke="#000" stroke-width="3.202" transform="matrix(.57046 .34744 -.25352 .52903 149.414 29.582)"/><path d="M42.237 69.014h27.459M72.967 91.948h27.46" fill="none" stroke="#fff" stroke-width="3.202" transform="matrix(.57046 .34744 -.25352 .52903 149.414 29.582)"/><path d="M72.795 99.229H89.05" fill="none" stroke="#fff" stroke-width="2.463" transform="matrix(.57046 .34744 -.25352 .52903 149.414 29.582)"/><path d="M73.419 112.448h8.432M85.413 112.62h8.433" fill="none" stroke="#fff" stroke-width="1.774" transform="matrix(.57046 .34744 -.25352 .52903 149.414 29.582)"/><path d="M42.08 76.396h52.244M42.247 84.05h52.245" fill="none" stroke="#fff" stroke-width="4.416" transform="matrix(.57046 .34744 -.25352 .52903 149.414 29.582)"/><g><path opacity=".279" fill="none" stroke="#fff" stroke-width="1.765" stroke-linejoin="round" d="M282.28 41.419h66.18v80.599h-66.18z" transform="matrix(.57046 .34744 -.25352 .52903 -145.968 -70.036)"/><path opacity=".279" fill="none" stroke="#fff" stroke-width="1.601" stroke-linejoin="round" d="M308.889 45.106h35.654v14.363h-35.654z" transform="matrix(.57046 .34744 -.25352 .52903 -145.968 -70.036)"/><path opacity=".279" fill="#fff" stroke="#fff" stroke-width="2.314" stroke-linejoin="round" d="M282.554 41.693h23.486v79.958h-23.486z" transform="matrix(.57046 .34744 -.25352 .52903 -145.968 -70.036)"/><path d="M308.182 67.766h18.711" fill="none" stroke="#fff" stroke-width="2.643" transform="matrix(.57046 .34744 -.25352 .52903 -145.968 -70.036)"/><path d="M285.501 53.55h17.484M285.855 64.722h17.483M285.855 70.301h17.483M285.855 75.88h17.483" fill="none" stroke="#000" stroke-width="2.555" transform="matrix(.57046 .34744 -.25352 .52903 -145.968 -70.036)"/><path d="M308.075 75.148h35.6" fill="none" stroke="#fff" stroke-width="3.646" transform="matrix(.57046 .34744 -.25352 .52903 -145.968 -70.036)"/><path d="M308.19 82.803h32.542" fill="none" stroke="#fff" stroke-width="3.485" transform="matrix(.57046 .34744 -.25352 .52903 -145.968 -70.036)"/><path d="M307.813 94.028h35.6M307.927 101.683h35.6M307.97 107.59h35.6M308.084 115.245h35.6" fill="none" stroke="#fff" stroke-width="3.646" transform="matrix(.57046 .34744 -.25352 .52903 -145.968 -70.036)"/></g><g><path opacity=".279" fill="none" stroke="#fff" stroke-width="1.765" stroke-linejoin="round" d="M282.28 41.419h66.18v80.599h-66.18z" transform="matrix(.57046 .34744 -.25352 .52903 -123.418 -116.38)"/><path opacity=".279" fill="none" stroke="#fff" stroke-width="1.601" stroke-linejoin="round" d="M308.889 45.106h35.654v14.363h-35.654z" transform="matrix(.57046 .34744 -.25352 .52903 -123.418 -116.38)"/><path opacity=".279" fill="#fff" stroke="#fff" stroke-width="2.314" stroke-linejoin="round" d="M282.554 41.693h23.486v79.958h-23.486z" transform="matrix(.57046 .34744 -.25352 .52903 -123.418 -116.38)"/><path d="M308.182 67.766h18.711" fill="none" stroke="#fff" stroke-width="2.643" transform="matrix(.57046 .34744 -.25352 .52903 -123.418 -116.38)"/><path d="M285.501 53.55h17.484M285.855 64.722h17.483M285.855 70.301h17.483M285.855 75.88h17.483" fill="none" stroke="#000" stroke-width="2.555" transform="matrix(.57046 .34744 -.25352 .52903 -123.418 -116.38)"/><path d="M308.075 75.148h35.6" fill="none" stroke="#fff" stroke-width="3.646" transform="matrix(.57046 .34744 -.25352 .52903 -123.418 -116.38)"/><path d="M308.19 82.803h32.542" fill="none" stroke="#fff" stroke-width="3.485" transform="matrix(.57046 .34744 -.25352 .52903 -123.418 -116.38)"/><path d="M307.813 94.028h35.6M307.927 101.683h35.6M307.97 107.59h35.6M308.084 115.245h35.6" fill="none" stroke="#fff" stroke-width="3.646" transform="matrix(.57046 .34744 -.25352 .52903 -123.418 -116.38)"/></g><g><path opacity=".279" fill="none" stroke="#fff" stroke-width="1.765" stroke-linejoin="round" d="M38.02 43.659h66.18v80.599H38.02z" transform="matrix(.57046 .34744 -.25352 .52903 61.122 -13.409)"/><path opacity=".279" fill="none" stroke="#fff" stroke-width="1.765" stroke-linejoin="round" d="M45.834 89.738h24.387v25.517H45.834z" transform="matrix(.57046 .34744 -.25352 .52903 61.122 -13.409)"/><path opacity=".279" fill="#fff" stroke="#fff" stroke-width="1.765" stroke-linejoin="round" d="M38.02 43.659h65.863v16.586H38.02z" transform="matrix(.57046 .34744 -.25352 .52903 61.122 -13.409)"/><path d="M42.062 52.866h27.46" fill="none" stroke="#000" stroke-width="3.202" transform="matrix(.57046 .34744 -.25352 .52903 61.122 -13.409)"/><path d="M42.237 69.014h27.459M72.967 91.948h27.46" fill="none" stroke="#fff" stroke-width="3.202" transform="matrix(.57046 .34744 -.25352 .52903 61.122 -13.409)"/><path d="M72.795 99.229H89.05" fill="none" stroke="#fff" stroke-width="2.463" transform="matrix(.57046 .34744 -.25352 .52903 61.122 -13.409)"/><path d="M73.419 112.448h8.432M85.413 112.62h8.433" fill="none" stroke="#fff" stroke-width="1.774" transform="matrix(.57046 .34744 -.25352 .52903 61.122 -13.409)"/><path d="M42.08 76.396h52.244M42.247 84.05h52.245" fill="none" stroke="#fff" stroke-width="4.416" transform="matrix(.57046 .34744 -.25352 .52903 61.122 -13.409)"/></g><g><path d="M122.447 123.92h16.255M153.077 123.75h16.254" fill="none" stroke="#fff" stroke-width="2.463" transform="matrix(.57046 .34744 -.25352 .52903 82.055 -58.716)"/><g stroke="#fff"><path opacity=".279" fill="none" stroke-width="1.765" stroke-linejoin="round" d="M38.02 43.659h66.18v80.599H38.02z" transform="matrix(.57046 .34744 -.25352 .52903 122.484 -27.762)"/><path opacity=".279" fill="none" stroke-width="1.765" stroke-linejoin="round" d="M43.717 84.446h24.387v25.517H43.717zM73.208 84.478h24.387v25.517H73.208z" transform="matrix(.57046 .34744 -.25352 .52903 122.484 -27.762)"/><path opacity=".279" fill="#fff" stroke-width="1.396" stroke-linejoin="round" d="M37.836 43.475h66.232v10.322H37.836z" transform="matrix(.57046 .34744 -.25352 .52903 122.484 -27.762)"/><path d="M42.237 58.96h27.459" fill="none" stroke-width="3.202" transform="matrix(.57046 .34744 -.25352 .52903 122.484 -27.762)"/><path d="M42.08 66.342h52.244M42.247 73.997h52.245" fill="none" stroke-width="4.416" transform="matrix(.57046 .34744 -.25352 .52903 122.484 -27.762)"/></g></g><g><path d="M122.447 123.92h16.255M153.077 123.75h16.254" fill="none" stroke="#fff" stroke-width="2.463" transform="matrix(.57046 .34744 -.25352 .52903 131.885 -48.883)"/><g stroke="#fff"><path opacity=".279" fill="none" stroke-width="1.765" stroke-linejoin="round" d="M38.02 43.659h66.18v80.599H38.02z" transform="matrix(.57046 .34744 -.25352 .52903 172.313 -17.93)"/><path opacity=".279" fill="none" stroke-width="1.765" stroke-linejoin="round" d="M43.717 84.446h24.387v25.517H43.717zM73.208 84.478h24.387v25.517H73.208z" transform="matrix(.57046 .34744 -.25352 .52903 172.313 -17.93)"/><path opacity=".279" fill="#fff" stroke-width="1.396" stroke-linejoin="round" d="M37.836 43.475h66.232v10.322H37.836z" transform="matrix(.57046 .34744 -.25352 .52903 172.313 -17.93)"/><path d="M42.237 58.96h27.459" fill="none" stroke-width="3.202" transform="matrix(.57046 .34744 -.25352 .52903 172.313 -17.93)"/><path d="M42.08 66.342h52.244M42.247 73.997h52.245" fill="none" stroke-width="4.416" transform="matrix(.57046 .34744 -.25352 .52903 172.313 -17.93)"/></g></g><g stroke="#fff"><path opacity=".279" fill="none" stroke-width="1.765" stroke-linejoin="round" d="M209.832 50.174h66.18v80.599h-66.18z" transform="matrix(.57046 .34744 -.25352 .52903 -57.788 -30.207)"/><path opacity=".279" fill="none" stroke-width="2.53" stroke-linejoin="round" d="M214.752 54.326h56.88v22.472h-56.88z" transform="matrix(.57046 .34744 -.25352 .52903 -57.788 -30.207)"/><path opacity=".279" fill="none" stroke-width="1.142" stroke-linejoin="round" d="M214.739 83.903h21.946v11.863h-21.946zM214.61 101.235h21.946v11.863H214.61z" transform="matrix(.57046 .34744 -.25352 .52903 -57.788 -30.207)"/><path opacity=".279" fill="#fff" stroke-width="1.317" stroke-linejoin="round" d="M210.359 120.814h65.133v9.34h-65.133z" transform="matrix(.57046 .34744 -.25352 .52903 -57.788 -30.207)"/><path d="M254.317 80.604h16.854" fill="none" stroke-width="2.508" transform="matrix(.57046 .34744 -.25352 .52903 -57.788 -30.207)"/><g fill="none" stroke-width="2.028"><path d="M240.547 88.276h11.015M240.547 91.85h11.015M240.547 95.424h11.015" transform="matrix(.57046 .34744 -.25352 .52903 -56.788 -31.305)"/></g><g fill="none" stroke-width="2.028"><path d="M240.547 88.276h11.015M240.547 91.85h11.015M240.547 95.424h11.015" transform="matrix(.57046 .34744 -.25352 .52903 -61.458 -22.117)"/></g></g><g><path opacity=".279" fill="none" stroke="#fff" stroke-width="1.765" stroke-linejoin="round" d="M282.28 41.419h66.18v80.599h-66.18z" transform="matrix(.57046 .34744 -.25352 .52903 -39.446 -66.159)"/><path opacity=".279" fill="none" stroke="#fff" stroke-width="1.601" stroke-linejoin="round" d="M308.889 45.106h35.654v14.363h-35.654z" transform="matrix(.57046 .34744 -.25352 .52903 -39.446 -66.159)"/><path opacity=".279" fill="#fff" stroke="#fff" stroke-width="2.314" stroke-linejoin="round" d="M282.554 41.693h23.486v79.958h-23.486z" transform="matrix(.57046 .34744 -.25352 .52903 -39.446 -66.159)"/><path d="M308.182 67.766h18.711" fill="none" stroke="#fff" stroke-width="2.643" transform="matrix(.57046 .34744 -.25352 .52903 -39.446 -66.159)"/><path d="M285.501 53.55h17.484M285.855 64.722h17.483M285.855 70.301h17.483M285.855 75.88h17.483" fill="none" stroke="#000" stroke-width="2.555" transform="matrix(.57046 .34744 -.25352 .52903 -39.446 -66.159)"/><path d="M308.075 75.148h35.6" fill="none" stroke="#fff" stroke-width="3.646" transform="matrix(.57046 .34744 -.25352 .52903 -39.446 -66.159)"/><path d="M308.19 82.803h32.542" fill="none" stroke="#fff" stroke-width="3.485" transform="matrix(.57046 .34744 -.25352 .52903 -39.446 -66.159)"/><path d="M307.813 94.028h35.6M307.927 101.683h35.6M307.97 107.59h35.6M308.084 115.245h35.6" fill="none" stroke="#fff" stroke-width="3.646" transform="matrix(.57046 .34744 -.25352 .52903 -39.446 -66.159)"/></g></svg>